<!DOCTYPE svg PUBLIC "-//W3C//DTD SVG 1.1//EN" "http://www.w3.org/Graphics/SVG/1.1/DTD/svg11.dtd">
<!-- Uploaded to: SVG Repo, www.svgrepo.com, Transformed by: SVG Repo Mixer Tools -->
<svg fill="#ffffff" height="199px" width="199px" version="1.1" id="XMLID_269_" xmlns="http://www.w3.org/2000/svg" xmlns:xlink="http://www.w3.org/1999/xlink" viewBox="-15.12 -15.12 54.24 54.24" xml:space="preserve" stroke="#ffffff" stroke-width="0.768">
<g id="SVGRepo_bgCarrier" stroke-width="0" transform="translate(0,0), scale(1)">
<path transform="translate(-15.12, -15.12), scale(1.6950000000000003)" d="M16,26.259515397688922C19.185672808385444,25.89474014172043,22.15357419617272,24.98045931900822,24.43207660475722,22.724356705311777C27.1770229988147,20.006395683740177,30.29250863787961,16.699930426425805,29.465245740899725,12.92664552857988C28.634329772134528,9.136698357291507,24.240067085184265,7.829683609673485,20.781145771632385,6.071848505074C17.168112794062655,4.235693349660568,13.275935557645692,1.0065237150319999,9.677025012031368,2.870207147491419C6.110516937715849,4.71711107177331,6.886814747364401,9.80038719467394,6.0115920124262185,13.720211057289832C5.145690887428026,17.59828661102141,2.264758374537212,21.87110428271698,4.7405179060952385,24.979137342486972C7.21662699276827,28.087609228742252,12.051669184619268,26.711618758723905,16,26.259515397688922" fill="#a80000" strokewidth="0"/>
</g>
<g id="SVGRepo_tracerCarrier" stroke-linecap="round" stroke-linejoin="round" stroke="#000000" stroke-width="0.4800000000000001"/>
<g id="SVGRepo_iconCarrier"> <g id="shop-cart"> <g> <circle cx="9" cy="21" r="2"/> </g> <g> <circle cx="19" cy="21" r="2"/> </g> <g> <path d="M21,18H7.2l-4-16H0V0h4.8l0.8,3H24l-3.2,11H8.3l0.5,2H21V18z M7.8,12h11.5l2-7H6L7.8,12z"/> </g> </g> </g>
</svg>